<?xml version="1.0" encoding="UTF-8" standalone="no"?>
<!-- Created with Inkscape (http://www.inkscape.org/) -->

<svg
   xmlns:dc="http://purl.org/dc/elements/1.1/"
   xmlns:cc="http://creativecommons.org/ns#"
   xmlns:rdf="http://www.w3.org/1999/02/22-rdf-syntax-ns#"
   xmlns:svg="http://www.w3.org/2000/svg"
   xmlns="http://www.w3.org/2000/svg"
   xmlns:sodipodi="http://sodipodi.sourceforge.net/DTD/sodipodi-0.dtd"
   xmlns:inkscape="http://www.inkscape.org/namespaces/inkscape"
   width="1200"
   height="1200"
   viewBox="0 0 317.49999 317.50001"
   version="1.1"
   id="svg4959"
   inkscape:version="0.92.1 r15371"
   sodipodi:docname="approved.svg">
  <defs
     id="defs4953" />
  <sodipodi:namedview
     id="base"
     pagecolor="#ffffff"
     bordercolor="#666666"
     borderopacity="1.0"
     inkscape:pageopacity="0.0"
     inkscape:pageshadow="2"
     inkscape:zoom="0.35"
     inkscape:cx="718.57143"
     inkscape:cy="656.60734"
     inkscape:document-units="px"
     inkscape:current-layer="layer1"
     showgrid="false"
     units="px"
     borderlayer="true"
     inkscape:showpageshadow="false"
     inkscape:window-width="1366"
     inkscape:window-height="715"
     inkscape:window-x="-8"
     inkscape:window-y="-8"
     inkscape:window-maximized="1" />
  <metadata
     id="metadata4956">
    <rdf:RDF>
      <cc:Work
         rdf:about="">
        <dc:format>image/svg+xml</dc:format>
        <dc:type
           rdf:resource="http://purl.org/dc/dcmitype/StillImage" />
        <dc:title></dc:title>
      </cc:Work>
    </rdf:RDF>
  </metadata>
  <g
     inkscape:label="Layer 1"
     inkscape:groupmode="layer"
     id="layer1"
     transform="translate(0,20.500008)">
    <path
       inkscape:connector-curvature="0"
       style="opacity:1;vector-effect:none;fill:#4d4d4d;fill-opacity:1;stroke:none;stroke-width:4.5395956;stroke-linecap:round;stroke-linejoin:round;stroke-miterlimit:4;stroke-dasharray:none;stroke-dashoffset:0;stroke-opacity:1;paint-order:stroke fill markers"
       d="m 9.7865349,105.74577 c -3.810704,0 -6.8785488,3.06785 -6.8785488,6.87856 v 51.25134 c 0,3.8107 3.0678448,6.87853 6.8785488,6.87853 H 307.71349 c 3.81067,0 6.87852,-3.06783 6.87852,-6.87853 v -51.25134 c 0,-3.81071 -3.06785,-6.87856 -6.87852,-6.87856 z m 169.7746851,7.47526 c 3.12216,0 5.76881,0.51691 7.93986,1.55073 2.19172,1.01316 3.96937,2.57423 5.33401,4.68324 0.99248,1.5094 1.6958,3.58736 2.10933,6.23396 0.41353,2.6466 0.62064,6.83362 0.62064,12.56103 0,5.70675 -0.20711,9.89375 -0.62064,12.56102 -0.41353,2.6466 -1.11685,4.72459 -2.10933,6.23397 -1.34396,2.08834 -3.12162,3.64941 -5.33401,4.68323 -2.19172,1.03383 -4.83838,1.55073 -7.93986,1.55073 -3.10149,0 -5.75851,-0.5169 -7.9709,-1.55073 -2.2124,-1.03382 -4.00129,-2.59489 -5.36595,-4.68323 -0.95111,-1.48871 -1.63283,-3.55633 -2.04636,-6.20293 -0.41353,-2.6466 -0.62064,-6.84396 -0.62064,-12.59206 0,-5.74808 0.20711,-9.94545 0.62064,-12.59205 0.41353,-2.64662 1.09525,-4.71422 2.04636,-6.20294 1.36466,-2.10901 3.15355,-3.67008 5.36595,-4.68324 2.21239,-1.03382 4.86941,-1.55073 7.9709,-1.55073 z m -152.717506,1.14733 h 13.274772 l 10.296555,47.76328 h -11.16546 l -1.395573,-9.14924 h -8.776849 l -1.395573,9.14924 H 16.423034 Z m 28.006291,0 h 10.979256 c 4.052608,0 7.041003,0.17603 8.963933,0.52754 1.943605,0.35151 3.576264,0.9409 4.899573,1.76796 1.757514,1.07518 3.091632,2.67768 4.00141,4.80735 0.930435,2.10902 1.395559,4.6314 1.395559,7.56749 0,4.83832 -1.282337,8.51878 -3.846238,11.04131 -2.543226,2.50188 -6.284922,3.75227 -11.226633,3.75227 h -3.939334 v 18.29936 H 54.850005 Z m 36.225443,0 H 102.0547 c 4.05261,0 7.04013,0.17603 8.96304,0.52754 1.94361,0.35151 3.57716,0.9409 4.90047,1.76796 1.75751,1.07518 3.09163,2.67768 4.00141,4.80735 0.93043,2.10902 1.39556,4.6314 1.39556,7.56749 0,4.83832 -1.28234,8.51878 -3.84624,11.04131 -2.54323,2.50188 -6.28582,3.75227 -11.22753,3.75227 h -3.93844 v 18.29936 H 91.075448 Z m 36.225442,0 h 12.56102 c 4.11465,0 7.10216,0.19674 8.96304,0.58962 1.86089,0.37216 3.37019,1.0237 4.52808,1.95413 1.36464,1.11655 2.37864,2.49121 3.04028,4.12466 0.68232,1.63345 1.02319,3.57679 1.02319,5.83054 0,2.74999 -0.48585,5.05579 -1.45763,6.91668 -0.95113,1.86089 -2.4397,3.39089 -4.46602,4.59013 3.453,1.53008 5.27208,5.15876 5.45817,10.88616 v 0.15511 c 0.0208,0.59962 0.0413,1.46774 0.0621,2.60496 0.0827,5.3759 0.97153,8.74658 2.667,10.11124 h -13.05666 c -0.28946,-0.99248 -0.50693,-2.02629 -0.65168,-3.10147 -0.12404,-1.09587 -0.18619,-2.26429 -0.18619,-3.50489 0,-0.76503 0.0208,-1.68493 0.0621,-2.76011 0.0414,-1.09585 0.0621,-1.80952 0.0621,-2.14035 0,-2.91539 -0.38227,-4.91052 -1.1473,-5.9857 -0.76504,-1.07519 -2.1397,-1.6128 -4.12466,-1.6128 h -2.2955 v 19.10532 h -11.04134 z m 71.67509,0 h 11.81713 l 4.12465,25.09101 c 0.18609,1.11653 0.3932,2.59475 0.62064,4.43496 0.24811,1.81956 0.48542,3.79486 0.71286,5.92455 l 0.0932,-0.58962 c 0.55828,-4.98306 0.9518,-8.21911 1.17924,-9.70783 l 4.21775,-25.15307 h 11.78522 l -10.85514,47.76328 h -13.02562 z m 38.98643,0 h 25.99005 v 9.27335 h -14.88755 v 8.77774 h 13.74026 v 9.5837 h -13.74026 v 10.42067 h 14.88755 v 9.70782 h -25.99005 z m 32.87571,0 h 12.31279 c 4.50746,0 7.84619,0.39263 10.01725,1.17834 2.17103,0.76502 3.8978,2.08879 5.17973,3.97037 0.99249,1.46804 1.69581,3.36997 2.10932,5.70641 0.41352,2.31578 0.61975,6.65813 0.61975,13.02651 0,6.36839 -0.20623,10.71074 -0.61975,13.02651 -0.41351,2.31578 -1.11683,4.21771 -2.10932,5.70642 -1.28193,1.88156 -3.0087,3.21481 -5.17973,4.00052 -2.17106,0.76504 -5.50979,1.1482 -10.01725,1.1482 h -12.31279 z m -91.33897,7.87779 c -1.71615,0 -2.9053,0.64118 -3.56695,1.92312 -0.66164,1.28194 -0.99215,4.53871 -0.99215,9.76989 v 8.62167 c 0,5.16916 0.33051,8.41557 0.99215,9.73886 0.66165,1.30261 1.87151,1.95415 3.62902,1.95415 1.73683,0 2.93545,-0.64117 3.5971,-1.92311 0.66164,-1.28196 0.99304,-4.53872 0.99304,-9.7699 v -8.62167 c 0,-5.29322 -0.34174,-8.56034 -1.02408,-9.80093 -0.66165,-1.26127 -1.87062,-1.89208 -3.62813,-1.89208 z m -39.76137,0.31033 c -0.14481,0 -0.37167,0.0103 -0.68182,0.031 -0.28947,0.0206 -0.52765,0.0311 -0.71374,0.0311 v 11.63093 c 0.18609,0 0.42427,0.0103 0.71374,0.0311 0.31015,0.0208 0.5371,0.0302 0.68182,0.0302 2.31578,0 3.94934,-0.46512 4.90046,-1.39557 0.97181,-0.93045 1.45764,-2.50188 1.45764,-4.71427 0,-2.04698 -0.48583,-3.49413 -1.45764,-4.34187 -0.95112,-0.86841 -2.58468,-1.30248 -4.90046,-1.30248 z m -73.660249,0.43444 v 11.94037 c 0.165398,0.0208 0.351815,0.0414 0.55858,0.0621 0.22744,0.0206 0.537219,0.0311 0.930075,0.0311 2.23307,0 3.845929,-0.51691 4.838406,-1.55073 0.992477,-1.0545 1.488656,-2.73984 1.488656,-5.05562 0,-1.92292 -0.527251,-3.30794 -1.581753,-4.15568 -1.054501,-0.84773 -2.812342,-1.27144 -5.272851,-1.27144 z m 36.225439,0 v 11.94037 c 0.1654,0.0208 0.35182,0.0414 0.55858,0.0621 0.22744,0.0206 0.53722,0.0311 0.93009,0.0311 2.23306,0 3.84591,-0.51691 4.83839,-1.55073 0.99248,-1.0545 1.48867,-2.73984 1.48867,-5.05562 0,-1.92292 -0.52726,-3.30794 -1.58177,-4.15568 -1.0545,-0.84773 -2.81234,-1.27144 -5.27285,-1.27144 z m 181.25048,0.21724 c -0.39286,0 -0.70266,0.0103 -0.93013,0.031 -0.20673,0 -0.39313,0.0103 -0.55855,0.0311 V 153.416 c 0.22744,0.0413 0.44493,0.0621 0.65166,0.0621 h 0.96112 c 1.19922,0 2.19254,-0.16471 2.97825,-0.49563 0.80637,-0.33082 1.45704,-0.85808 1.95325,-1.58177 0.41351,-0.57893 0.69315,-1.69559 0.83787,-3.34972 0.1654,-1.65412 0.24827,-4.90053 0.24827,-9.73885 v -2.17139 c 0,-3.96989 -0.0724,-6.64763 -0.21721,-8.03295 -0.14481,-1.406 -0.41402,-2.36732 -0.80687,-2.88425 -0.43421,-0.68232 -1.07538,-1.18886 -1.9231,-1.51969 -0.82708,-0.33083 -1.89198,-0.49563 -3.19456,-0.49563 z m -250.103381,0.30943 -3.225595,20.84223 h 6.420155 z"
       id="rect4907" />
    <path
       inkscape:connector-curvature="0"
       style="color:#000000;font-style:normal;font-variant:normal;font-weight:normal;font-stretch:normal;font-size:medium;line-height:normal;font-family:sans-serif;font-variant-ligatures:normal;font-variant-position:normal;font-variant-caps:normal;font-variant-numeric:normal;font-variant-alternates:normal;font-feature-settings:normal;text-indent:0;text-align:start;text-decoration:none;text-decoration-line:none;text-decoration-style:solid;text-decoration-color:#000000;letter-spacing:normal;word-spacing:normal;text-transform:none;writing-mode:lr-tb;direction:ltr;text-orientation:mixed;dominant-baseline:auto;baseline-shift:baseline;text-anchor:start;white-space:normal;shape-padding:0;clip-rule:nonzero;display:inline;overflow:visible;visibility:visible;opacity:1;isolation:auto;mix-blend-mode:normal;color-interpolation:sRGB;color-interpolation-filters:linearRGB;solid-color:#000000;solid-opacity:1;vector-effect:none;fill:#4d4d4d;fill-opacity:1;fill-rule:nonzero;stroke:none;stroke-width:4.5395956;stroke-linecap:round;stroke-linejoin:round;stroke-miterlimit:4;stroke-dasharray:none;stroke-dashoffset:0;stroke-opacity:1;paint-order:stroke fill markers;color-rendering:auto;image-rendering:auto;shape-rendering:auto;text-rendering:auto;enable-background:accumulate"
       d="m 158.74911,-1.580204 c -77.199659,0 -139.831067,62.630517 -139.831067,139.830194 0,3.57189 0.135596,7.11188 0.398984,10.61663 l 4.514774,-20.69328 C 28.983321,58.137486 87.392722,2.9567324 158.74911,2.9567324 c 66.89341,0 122.40602,48.4955806 133.33377,112.2610276 0.38593,0.10157 0.75385,0.20899 1.08528,0.32894 1.54343,0.54386 2.85855,1.3753 3.95264,2.48347 C 287.31494,50.406078 229.08118,-1.580204 158.74911,-1.580204 Z M 297.11989,158.47247 c -1.09395,1.11218 -2.40853,1.95247 -3.95173,2.51097 -0.33265,0.11718 -0.70222,0.2226 -1.08967,0.32186 -10.9372,63.75346 -66.44405,112.2344 -133.32938,112.2344 -66.596924,0 -121.918507,-48.06127 -133.190138,-111.40806 H 20.95997 c 11.339748,65.83007 68.731758,115.94855 137.78914,115.94855 70.33133,0 128.56403,-51.98467 138.37078,-119.60772 z"
       id="path4749" />
    <path
       inkscape:connector-curvature="0"
       style="color:#000000;font-style:normal;font-variant:normal;font-weight:normal;font-stretch:normal;font-size:medium;line-height:normal;font-family:sans-serif;font-variant-ligatures:normal;font-variant-position:normal;font-variant-caps:normal;font-variant-numeric:normal;font-variant-alternates:normal;font-feature-settings:normal;text-indent:0;text-align:start;text-decoration:none;text-decoration-line:none;text-decoration-style:solid;text-decoration-color:#000000;letter-spacing:normal;word-spacing:normal;text-transform:none;writing-mode:lr-tb;direction:ltr;text-orientation:mixed;dominant-baseline:auto;baseline-shift:baseline;text-anchor:start;white-space:normal;shape-padding:0;clip-rule:nonzero;display:inline;overflow:visible;visibility:visible;opacity:1;isolation:auto;mix-blend-mode:normal;color-interpolation:sRGB;color-interpolation-filters:linearRGB;solid-color:#000000;solid-opacity:1;vector-effect:none;fill:#4d4d4d;fill-opacity:1;fill-rule:nonzero;stroke:none;stroke-width:3.08063459;stroke-linecap:round;stroke-linejoin:round;stroke-miterlimit:4;stroke-dasharray:none;stroke-dashoffset:0;stroke-opacity:1;paint-order:stroke fill markers;color-rendering:auto;image-rendering:auto;shape-rendering:auto;text-rendering:auto;enable-background:accumulate"
       d="m 158.74911,43.357366 c -44.145,0 -81.267297,30.180439 -91.857643,71.023394 1.150686,0.0103 2.204502,0.036 3.165306,0.0772 10.475769,-39.179983 46.198577,-68.017688 88.692337,-68.017688 42.46138,0 78.16409,28.79378 88.67108,67.928148 h 3.18572 C 240.01045,73.531742 202.88959,43.357366 158.74911,43.357366 Z M 66.077531,122.99092 v 11.94037 c 0.165398,0.0208 0.351815,0.0414 0.55858,0.0621 0.08956,0.009 0.250998,0.007 0.366176,0.012 0.141035,-4.06509 0.546296,-8.06204 1.198745,-11.97583 -0.370311,-0.0233 -0.753181,-0.0389 -1.162388,-0.0389 z m 183.324299,0.65079 c 0.46063,2.8832 0.78508,5.81136 0.97088,8.77774 h 3.08461 c -0.17989,-2.96422 -0.49008,-5.89298 -0.93628,-8.77774 z m 1.07729,18.36144 c -0.14189,3.52824 -0.47674,7.00614 -1.00547,10.42067 h 3.11212 c 0.51229,-3.41716 0.83793,-6.89482 0.97529,-10.42067 z m -184.401589,1.82913 v 14.86452 c 9.356652,42.56735 47.302819,74.44581 92.671579,74.44581 44.14048,0 81.26134,-30.17438 91.8568,-71.01097 h -3.18572 c -10.50699,39.13435 -46.2097,67.92813 -88.67108,67.92813 -48.84879,0 -88.752028,-38.10636 -91.635985,-86.22749 z"
       id="circle4751" />
    <g
       aria-label="APPROVED"
       transform="matrix(-1.7157528,0,0,-1.7157528,523.24814,405.56273)"
       style="font-style:normal;font-weight:normal;font-size:21.16666603px;line-height:9.7551136px;font-family:sans-serif;letter-spacing:0px;word-spacing:0px;fill:#4d4d4d;fill-opacity:1;stroke:none;stroke-width:0.92551863"
       id="text4757">
      <path
         inkscape:connector-curvature="0"
         d="m 165.62091,109.04472 1.55251,-1.472 -5.55117,-4.30757 z m 0.73716,7.46196 -8.4311,-13.93937 3.21001,-3.043552 13.44111,9.189152 -2.70001,2.55999 -2.43527,-1.8925 -2.12251,2.01244 1.76028,2.53251 z"
         style="font-style:normal;font-variant:normal;font-weight:normal;font-stretch:normal;font-size:21.16666603px;font-family:'Swis721 BlkCn BT';-inkscape-font-specification:'Swis721 BlkCn BT';fill:#4d4d4d;stroke-width:0.92551863"
         id="path4825" />
      <path
         inkscape:connector-curvature="0"
         d="m 175.34964,97.446939 q 0.0762,-0.03364 0.1702,-0.0779 0.10283,-0.04958 0.27127,-0.150523 0.95743,-0.573795 1.11731,-1.272073 0.15457,-0.707144 -0.44047,-1.700041 -0.49411,-0.82446 -1.16406,-0.916972 -0.66995,-0.09251 -1.7249,0.539725 l -0.27482,0.164701 z m 1.45025,9.698021 -8.1819,-13.652342 3.13826,-1.880774 q 1.73757,-1.041333 2.65235,-1.384727 0.92365,-0.348707 1.70353,-0.334128 1.02981,0.0094 1.96711,0.688732 0.94085,0.665165 1.69529,1.924017 1.24322,2.074447 0.79212,3.814798 -0.44755,1.726174 -2.56633,2.995962 l -1.12587,0.674741 3.13462,5.230441 z"
         style="font-style:normal;font-variant:normal;font-weight:normal;font-stretch:normal;font-size:21.16666603px;font-family:'Swis721 BlkCn BT';-inkscape-font-specification:'Swis721 BlkCn BT';fill:#4d4d4d;stroke-width:0.92551863"
         id="path4827" />
      <path
         inkscape:connector-curvature="0"
         d="m 189.16119,90.895392 q 0.0818,-0.01596 0.18321,-0.03837 0.11124,-0.02563 0.29782,-0.08686 1.06057,-0.348041 1.3708,-0.993727 0.30701,-0.655507 -0.0539,-1.75535 -0.2997,-0.913263 -0.93265,-1.151531 -0.63294,-0.238269 -1.80153,0.145221 l -0.30442,0.0999 z m -0.72862,9.778748 -4.96281,-15.122844 3.47629,-1.140802 q 1.92472,-0.63163 2.89277,-0.764392 0.97787,-0.135984 1.73525,0.05057 1.00228,0.23672 1.76629,1.106389 0.77061,0.856626 1.22822,2.25107 0.75409,2.297886 -0.0704,3.895533 -0.81793,1.584603 -3.16492,2.354806 l -1.24714,0.40927 1.90134,5.793817 z"
         style="font-style:normal;font-variant:normal;font-weight:normal;font-stretch:normal;font-size:21.16666603px;font-family:'Swis721 BlkCn BT';-inkscape-font-specification:'Swis721 BlkCn BT';fill:#4d4d4d;stroke-width:0.92551863"
         id="path4829" />
      <path
         inkscape:connector-curvature="0"
         d="m 204.01309,87.323151 q 0.0926,-0.0086 0.23765,-0.01178 0.15532,-0.0041 0.22735,-0.01082 1.15255,-0.107473 1.58274,-0.614692 0.44048,-0.508179 0.33781,-1.609278 -0.095,-1.018774 -0.61801,-1.39559 -0.51367,-0.388067 -1.66622,-0.280595 -0.072,0.0067 -0.22543,0.0314 -0.14311,0.02372 -0.23573,0.03236 z m -2.80081,9.592898 -1.47775,-15.847592 4.16772,-0.388628 q 2.04783,-0.190955 2.99222,-0.08179 0.94343,0.09887 1.56289,0.508213 0.731,0.492363 1.13611,1.274617 0.4154,0.781295 0.51999,1.902975 0.12762,1.368656 -0.26968,2.339914 -0.387,0.970299 -1.33983,1.661194 1.78954,0.601259 2.14796,3.443131 l 0.005,0.05145 q 0.0381,0.297469 0.10119,0.862495 0.29065,2.671729 1.19781,3.272227 l -4.33236,0.403981 q -0.19013,-0.480517 -0.31206,-1.008914 -0.1126,-0.539646 -0.17018,-1.157085 -0.0355,-0.380754 -0.0648,-0.917786 -0.0303,-0.547324 -0.0456,-0.711974 -0.1353,-1.450981 -0.56595,-1.95059 -0.43065,-0.499609 -1.41855,-0.40749 l -0.76151,0.07101 0.5911,6.339037 z"
         style="font-style:normal;font-variant:normal;font-weight:normal;font-stretch:normal;font-size:21.16666603px;font-family:'Swis721 BlkCn BT';-inkscape-font-specification:'Swis721 BlkCn BT';fill:#4d4d4d;stroke-width:0.92551863"
         id="path4831" />
      <path
         inkscape:connector-curvature="0"
         d="m 222.23131,90.499295 0.38937,-2.846704 q 0.35856,-2.621426 0.10468,-3.282043 -0.24224,-0.669456 -1.11264,-0.788508 -0.84991,-0.116251 -1.26443,0.473806 -0.41452,0.590057 -0.76887,3.180762 l -0.38937,2.846704 q -0.35015,2.559986 -0.11212,3.260162 0.23944,0.689936 1.10984,0.808988 0.86015,0.117651 1.27467,-0.472405 0.41452,-0.590057 0.76887,-3.180762 z m -6.60463,-2.35336 q 0.38937,-2.846704 0.77344,-4.129405 0.38408,-1.2827 0.95596,-1.955548 0.8187,-0.952033 1.98301,-1.303925 1.1657,-0.362131 2.70169,-0.152039 1.54623,0.211493 2.5514,0.870554 1.0168,0.650223 1.54977,1.787137 0.38928,0.814746 0.4148,2.153471 0.0255,1.338725 -0.36245,4.175189 -0.38657,2.826224 -0.77205,4.119164 -0.38408,1.2827 -0.97784,1.962987 -0.80706,0.943194 -1.97276,1.305325 -1.15547,0.363532 -2.69146,0.15344 -1.53599,-0.210092 -2.56163,-0.871955 -1.02565,-0.661863 -1.56002,-1.788537 -0.3702,-0.801705 -0.39572,-2.140429 -0.0255,-1.338725 0.36386,-4.185429 z"
         style="font-style:normal;font-variant:normal;font-weight:normal;font-stretch:normal;font-size:21.16666603px;font-family:'Swis721 BlkCn BT';-inkscape-font-specification:'Swis721 BlkCn BT';fill:#4d4d4d;stroke-width:0.92551863"
         id="path4833" />
      <path
         inkscape:connector-curvature="0"
         d="m 230.79964,99.279853 2.30595,-16.144749 3.68304,1.393204 -1.67259,8.306768 q -0.11046,0.554916 -0.32957,1.455483 -0.20579,0.894558 -0.4761,1.93046 l 0.0985,-0.172699 q 1.14227,-2.230963 1.51189,-2.886748 l 4.28026,-7.342448 3.67338,1.389548 -9.0147,13.606998 z"
         style="font-style:normal;font-variant:normal;font-weight:normal;font-stretch:normal;font-size:21.16666603px;font-family:'Swis721 BlkCn BT';-inkscape-font-specification:'Swis721 BlkCn BT';fill:#4d4d4d;stroke-width:0.92551863"
         id="path4835" />
      <path
         inkscape:connector-curvature="0"
         d="m 240.55121,103.44573 8.62107,-13.379346 7.28046,4.691207 -1.67384,2.597679 -4.17018,-2.687087 -1.58427,2.458672 3.84874,2.479958 -1.72981,2.684557 -3.84874,-2.479957 -1.88096,2.919127 4.17019,2.68709 -1.75221,2.71931 z"
         style="font-style:normal;font-variant:normal;font-weight:normal;font-stretch:normal;font-size:21.16666603px;font-family:'Swis721 BlkCn BT';-inkscape-font-specification:'Swis721 BlkCn BT';fill:#4d4d4d;stroke-width:0.92551863"
         id="path4837" />
      <path
         inkscape:connector-curvature="0"
         d="m 262.37508,103.77756 -7.09929,7.10775 q 0.0658,0.095 0.13895,0.168 0.0731,0.073 0.22669,0.22642 0.42412,0.42362 0.81886,0.58416 0.40205,0.16785 0.83318,0.0872 0.35076,-0.0587 0.98625,-0.59255 0.6428,-0.52657 2.35189,-2.2377 l 0.51127,-0.51187 q 1.40233,-1.404 1.84049,-1.94507 0.44547,-0.54837 0.48913,-0.86996 0.0875,-0.39469 -0.0955,-0.81115 -0.17564,-0.40915 -0.63632,-0.86929 -0.13894,-0.13877 -0.22668,-0.2118 -0.0731,-0.073 -0.13893,-0.12415 z m -11.79879,6.51859 11.24785,-11.261257 2.90307,2.899607 q 1.59412,1.59223 2.08439,2.637 0.49757,1.03746 0.2863,2.15574 -0.16757,0.86977 -0.84665,1.84215 -0.67177,0.96508 -2.92134,3.21733 -2.24957,2.25225 -3.21385,2.92518 -0.96427,0.67292 -1.84115,0.84884 -1.11802,0.2126 -2.16337,-0.27642 -1.03806,-0.49634 -2.63218,-2.08857 z"
         style="font-style:normal;font-variant:normal;font-weight:normal;font-stretch:normal;font-size:21.16666603px;font-family:'Swis721 BlkCn BT';-inkscape-font-specification:'Swis721 BlkCn BT';fill:#4d4d4d;stroke-width:0.92551863"
         id="path4839" />
    </g>
    <g
       aria-label="APPROVED"
       transform="matrix(-1.7154021,-0.03468804,0.03468804,-1.7154021,515.78539,413.7845)"
       style="font-style:normal;font-weight:normal;font-size:21.16666603px;line-height:9.7551136px;font-family:sans-serif;letter-spacing:0px;word-spacing:0px;fill:#4d4d4d;fill-opacity:1;stroke:none;stroke-width:0.92551863"
       id="text4757-4">
      <path
         d="m 259.44708,201.41191 -1.49614,1.52926 5.70898,4.0961 z m -1.0168,-7.42901 8.94852,13.61298 -3.09347,3.16193 -13.77665,-8.678 2.60198,-2.65957 2.50462,1.79973 2.04545,-2.09071 -1.85412,-2.46463 z"
         style="font-style:normal;font-variant:normal;font-weight:normal;font-stretch:normal;font-size:21.16666603px;font-family:'Swis721 BlkCn BT';-inkscape-font-specification:'Swis721 BlkCn BT';fill:#4d4d4d;stroke-width:0.92551863"
         id="path4806"
         inkscape:connector-curvature="0" />
      <path
         d="m 250.16066,213.36679 q -0.0749,0.0365 -0.16716,0.0842 -0.10089,0.0534 -0.26542,0.1606 -0.93522,0.60934 -1.06877,1.31313 -0.12791,0.71245 0.504,1.68231 0.52471,0.80532 1.19766,0.87261 0.67295,0.0673 1.70343,-0.6041 l 0.26844,-0.17491 z m -1.81335,-9.63673 8.68872,13.33552 -3.06543,1.99728 q -1.69725,1.10583 -2.59849,1.48333 -0.9099,0.38314 -1.68978,0.39786 -1.02944,0.0293 -1.99158,-0.61439 -0.96517,-0.62937 -1.76633,-1.85901 -1.32024,-2.0263 -0.9348,-3.78237 0.38242,-1.74176 2.45203,-3.0902 l 1.09974,-0.71654 -3.3288,-5.10906 z"
         style="font-style:normal;font-variant:normal;font-weight:normal;font-stretch:normal;font-size:21.16666603px;font-family:'Swis721 BlkCn BT';-inkscape-font-specification:'Swis721 BlkCn BT';fill:#4d4d4d;stroke-width:0.92551863"
         id="path4808"
         inkscape:connector-curvature="0" />
      <path
         d="m 236.60482,220.4323 q -0.0811,0.019 -0.18163,0.0452 -0.1102,0.0298 -0.29435,0.098 -1.04675,0.38762 -1.33252,1.0445 -0.28218,0.66657 0.11979,1.75208 0.33378,0.90137 0.97523,1.11571 0.64145,0.21433 1.79481,-0.21277 l 0.30045,-0.11126 z m 0.36096,-9.79921 5.52712,14.92585 -3.43101,1.27052 q -1.89965,0.70345 -2.86203,0.87246 -0.97207,0.17261 -1.73593,0.0146 -1.01046,-0.19892 -1.80658,-1.03929 -0.80223,-0.82709 -1.31187,-2.20337 -0.83984,-2.26795 -0.0759,-3.89543 0.75786,-1.61419 3.07427,-2.47197 l 1.2309,-0.45581 -2.11753,-5.71834 z"
         style="font-style:normal;font-variant:normal;font-weight:normal;font-stretch:normal;font-size:21.16666603px;font-family:'Swis721 BlkCn BT';-inkscape-font-specification:'Swis721 BlkCn BT';fill:#4d4d4d;stroke-width:0.92551863"
         id="path4810"
         inkscape:connector-curvature="0" />
      <path
         d="m 221.89752,224.55966 q -0.0922,0.0121 -0.23703,0.0207 -0.15506,0.01 -0.22679,0.0193 -1.14771,0.15067 -1.55855,0.67368 -0.42109,0.52436 -0.27714,1.62083 0.13318,1.01449 0.66996,1.3714 0.52788,0.36851 1.67559,0.21784 0.0717,-0.009 0.22409,-0.0399 0.14212,-0.0291 0.23435,-0.0412 z m 2.43866,-9.69129 2.07172,15.78093 -4.15018,0.54484 q -2.03922,0.26771 -2.98705,0.19409 -0.94647,-0.0634 -1.58086,-0.44918 -0.74897,-0.46457 -1.18317,-1.23106 -0.44444,-0.76515 -0.59107,-1.88211 -0.17892,-1.3629 0.18163,-2.34839 0.3503,-0.98414 1.27652,-1.71033 -1.81086,-0.53364 -2.27573,-3.36005 l -0.007,-0.0512 q -0.0493,-0.29583 -0.13349,-0.85809 -0.39077,-2.65893 -1.31984,-3.22494 l 4.31414,-0.56636 q 0.20804,0.47304 0.34972,0.99648 0.13279,0.53504 0.2135,1.14988 0.0498,0.37915 0.0992,0.91471 0.0508,0.5458 0.0723,0.70976 0.18968,1.44487 0.63879,1.92796 0.44911,0.48309 1.43285,0.35394 l 0.75831,-0.0995 -0.82869,-6.31237 z"
         style="font-style:normal;font-variant:normal;font-weight:normal;font-stretch:normal;font-size:21.16666603px;font-family:'Swis721 BlkCn BT';-inkscape-font-specification:'Swis721 BlkCn BT';fill:#4d4d4d;stroke-width:0.92551863"
         id="path4812"
         inkscape:connector-curvature="0" />
      <path
         d="m 203.57291,222.06979 -0.28221,2.85932 q -0.25988,2.63304 0.0186,3.28365 0.2672,0.65989 1.14145,0.74618 0.85368,0.0843 1.24575,-0.52095 0.39207,-0.6052 0.6489,-3.20738 l 0.28222,-2.85932 q 0.25378,-2.57133 -0.0104,-3.26207 -0.26517,-0.68046 -1.13942,-0.76675 -0.86397,-0.0853 -1.25604,0.51993 -0.39207,0.60521 -0.6489,3.20739 z m 6.68834,2.10372 q -0.28221,2.85931 -0.61786,4.15553 -0.33564,1.29622 -0.88186,1.99006 -0.78237,0.9821 -1.93264,1.37746 -1.15129,0.40565 -2.69409,0.25338 -1.55308,-0.15329 -2.58228,-0.77415 -1.0405,-0.61158 -1.61578,-1.72769 -0.41959,-0.79955 -0.49536,-2.13637 -0.0758,-1.33683 0.20543,-4.18586 0.28018,-2.83874 0.61684,-4.14525 0.33565,-1.29621 0.90345,-1.99831 0.77107,-0.97283 1.92236,-1.37848 1.141,-0.40666 2.6838,-0.25439 1.54279,0.15228 2.59256,0.77516 1.04977,0.62289 1.62607,1.72871 0.40004,0.78724 0.4758,2.12406 0.0758,1.33682 -0.20644,4.19614 z"
         style="font-style:normal;font-variant:normal;font-weight:normal;font-stretch:normal;font-size:21.16666603px;font-family:'Swis721 BlkCn BT';-inkscape-font-specification:'Swis721 BlkCn BT';fill:#4d4d4d;stroke-width:0.92551863"
         id="path4814"
         inkscape:connector-curvature="0" />
      <path
         d="m 194.68095,213.61714 -1.69815,16.21994 -3.73275,-1.25393 1.35952,-8.36372 q 0.0896,-0.55867 0.27469,-1.46683 0.17206,-0.90165 0.40328,-1.94697 l -0.0919,0.17627 q -1.0577,2.27228 -1.40243,2.94148 l -4.00157,7.49798 -3.72296,-1.25064 8.49745,-13.93588 z"
         style="font-style:normal;font-variant:normal;font-weight:normal;font-stretch:normal;font-size:21.16666603px;font-family:'Swis721 BlkCn BT';-inkscape-font-specification:'Swis721 BlkCn BT';fill:#4d4d4d;stroke-width:0.92551863"
         id="path4816"
         inkscape:connector-curvature="0" />
      <path
         d="m 184.77982,209.82034 -8.11265,13.69361 -7.45145,-4.41454 1.57511,-2.6587 4.26814,2.52862 1.49083,-2.51642 -3.93913,-2.33371 1.62779,-2.74761 3.93914,2.3337 1.77003,-2.98769 -4.26814,-2.52862 1.64887,-2.78318 z"
         style="font-style:normal;font-variant:normal;font-weight:normal;font-stretch:normal;font-size:21.16666603px;font-family:'Swis721 BlkCn BT';-inkscape-font-specification:'Swis721 BlkCn BT';fill:#4d4d4d;stroke-width:0.92551863"
         id="path4818"
         inkscape:connector-curvature="0" />
      <path
         d="m 162.95889,210.30816 6.82741,-7.3693 q -0.0694,-0.0924 -0.14516,-0.16267 -0.0758,-0.0702 -0.23503,-0.21774 -0.43973,-0.4074 -0.84022,-0.55301 -0.40806,-0.15263 -0.83586,-0.0559 -0.34831,0.0718 -0.96331,0.62916 -0.62258,0.55034 -2.26622,2.32443 l -0.49168,0.53071 q -1.34863,1.45566 -1.76617,2.01279 -0.42457,0.56472 -0.45612,0.88772 -0.0726,0.39769 0.12588,0.80699 0.19088,0.40227 0.66852,0.84478 0.14405,0.13346 0.23447,0.20314 0.0758,0.0702 0.14349,0.11886 z m 11.54571,-6.957 -10.81709,11.67563 -3.00989,-2.78856 q -1.65278,-1.53126 -2.18193,-2.55688 -0.53618,-1.01805 -0.36704,-2.14347 0.13479,-0.87545 0.77688,-1.87265 0.63507,-0.98962 2.79849,-3.32474 2.16342,-2.33513 3.10175,-3.04378 0.93833,-0.70866 1.80798,-0.91737 1.10925,-0.25443 2.17223,0.19499 1.05595,0.45702 2.70874,1.98827 z"
         style="font-style:normal;font-variant:normal;font-weight:normal;font-stretch:normal;font-size:21.16666603px;font-family:'Swis721 BlkCn BT';-inkscape-font-specification:'Swis721 BlkCn BT';fill:#4d4d4d;stroke-width:0.92551863"
         id="path4820"
         inkscape:connector-curvature="0" />
    </g>
    <path
       sodipodi:type="star"
       style="opacity:1;vector-effect:none;fill:#4d4d4d;fill-opacity:1;stroke:none;stroke-width:2.95495367;stroke-linecap:round;stroke-linejoin:round;stroke-miterlimit:4;stroke-dasharray:none;stroke-dashoffset:0;stroke-opacity:1;paint-order:stroke fill markers"
       id="path4842"
       sodipodi:sides="5"
       sodipodi:cx="54.138531"
       sodipodi:cy="88.840944"
       sodipodi:r1="14.565229"
       sodipodi:r2="7.2826142"
       sodipodi:arg1="0.78539816"
       sodipodi:arg2="1.4137167"
       inkscape:flatsided="false"
       inkscape:rounded="0"
       inkscape:randomized="0"
       d="m 64.437703,99.140115 -9.15992,-3.106219 -7.751728,5.784764 0.123619,-9.67148 -7.897051,-5.584741 9.236322,-2.871083 2.871082,-9.236321 5.584741,7.897051 9.671477,-0.123619 -5.784761,7.751727 z"
       inkscape:transform-center-x="0.70410006"
       inkscape:transform-center-y="-0.70409974" />
    <path
       inkscape:transform-center-y="-0.70409974"
       inkscape:transform-center-x="-0.70410885"
       d="m -252.77038,99.140115 -9.15992,-3.106219 -7.75173,5.784764 0.12362,-9.67148 -7.89705,-5.584741 9.23632,-2.871083 2.87109,-9.236321 5.58474,7.897051 9.67147,-0.123619 -5.78476,7.751727 z"
       inkscape:randomized="0"
       inkscape:rounded="0"
       inkscape:flatsided="false"
       sodipodi:arg2="1.4137167"
       sodipodi:arg1="0.78539816"
       sodipodi:r2="7.2826142"
       sodipodi:r1="14.565229"
       sodipodi:cy="88.840944"
       sodipodi:cx="-263.06955"
       sodipodi:sides="5"
       id="path4844"
       style="opacity:1;vector-effect:none;fill:#4d4d4d;fill-opacity:1;stroke:none;stroke-width:2.95495367;stroke-linecap:round;stroke-linejoin:round;stroke-miterlimit:4;stroke-dasharray:none;stroke-dashoffset:0;stroke-opacity:1;paint-order:stroke fill markers"
       sodipodi:type="star"
       transform="scale(-1,1)" />
    <path
       inkscape:transform-center-y="0.70409434"
       inkscape:transform-center-x="0.70410006"
       d="m 64.437703,-179.00094 -9.15992,-3.10622 -7.751728,5.78476 0.123619,-9.67147 -7.897051,-5.58474 9.236322,-2.87109 2.871082,-9.23632 5.584741,7.89705 9.671477,-0.12362 -5.784761,7.75173 z"
       inkscape:randomized="0"
       inkscape:rounded="0"
       inkscape:flatsided="false"
       sodipodi:arg2="1.4137167"
       sodipodi:arg1="0.78539816"
       sodipodi:r2="7.2826142"
       sodipodi:r1="14.565229"
       sodipodi:cy="-189.30011"
       sodipodi:cx="54.138531"
       sodipodi:sides="5"
       id="path4846"
       style="opacity:1;vector-effect:none;fill:#4d4d4d;fill-opacity:1;stroke:none;stroke-width:2.95495367;stroke-linecap:round;stroke-linejoin:round;stroke-miterlimit:4;stroke-dasharray:none;stroke-dashoffset:0;stroke-opacity:1;paint-order:stroke fill markers"
       sodipodi:type="star"
       transform="scale(1,-1)" />
    <path
       transform="scale(-1)"
       sodipodi:type="star"
       style="opacity:1;vector-effect:none;fill:#4d4d4d;fill-opacity:1;stroke:none;stroke-width:2.95495367;stroke-linecap:round;stroke-linejoin:round;stroke-miterlimit:4;stroke-dasharray:none;stroke-dashoffset:0;stroke-opacity:1;paint-order:stroke fill markers"
       id="path4848"
       sodipodi:sides="5"
       sodipodi:cx="-263.06955"
       sodipodi:cy="-189.30011"
       sodipodi:r1="14.565229"
       sodipodi:r2="7.2826142"
       sodipodi:arg1="0.78539816"
       sodipodi:arg2="1.4137167"
       inkscape:flatsided="false"
       inkscape:rounded="0"
       inkscape:randomized="0"
       d="m -252.77038,-179.00094 -9.15992,-3.10622 -7.75173,5.78476 0.12362,-9.67147 -7.89705,-5.58474 9.23632,-2.87109 2.87109,-9.23632 5.58474,7.89705 9.67147,-0.12362 -5.78476,7.75173 z"
       inkscape:transform-center-x="-0.70410885"
       inkscape:transform-center-y="0.70409434" />
    <path
       inkscape:connector-curvature="0"
       style="opacity:1;vector-effect:none;fill:#4d4d4d;fill-opacity:1;stroke:none;stroke-width:2.76331687;stroke-linecap:round;stroke-linejoin:round;stroke-miterlimit:4;stroke-dasharray:none;stroke-dashoffset:0;stroke-opacity:1;paint-order:stroke fill markers"
       d="m 12.513839,109.36503 c -3.4021231,0 -6.1408661,2.73876 -6.1408661,6.14089 v 45.48816 c 0,3.40213 2.738743,6.14086 6.1408661,6.14086 H 304.98618 c 3.40212,0 6.14085,-2.73873 6.14085,-6.14086 v -45.48816 c 0,-3.40213 -2.73873,-6.14089 -6.14085,-6.14089 z m 167.047381,3.856 c 3.12216,0 5.76881,0.51691 7.93986,1.55073 2.19172,1.01316 3.96937,2.57423 5.33401,4.68324 0.99248,1.5094 1.6958,3.58736 2.10933,6.23396 0.41353,2.6466 0.62064,6.83362 0.62064,12.56103 0,5.70675 -0.20711,9.89375 -0.62064,12.56102 -0.41353,2.6466 -1.11685,4.72459 -2.10933,6.23397 -1.34396,2.08834 -3.12162,3.64941 -5.33401,4.68323 -2.19172,1.03383 -4.83838,1.55073 -7.93986,1.55073 -3.10149,0 -5.75851,-0.5169 -7.9709,-1.55073 -2.2124,-1.03382 -4.00129,-2.59489 -5.36595,-4.68323 -0.95111,-1.48871 -1.63283,-3.55633 -2.04636,-6.20293 -0.41353,-2.6466 -0.62064,-6.84396 -0.62064,-12.59206 0,-5.74808 0.20711,-9.94545 0.62064,-12.59205 0.41353,-2.64662 1.09525,-4.71422 2.04636,-6.20294 1.36466,-2.10901 3.15355,-3.67008 5.36595,-4.68324 2.21239,-1.03382 4.86941,-1.55073 7.9709,-1.55073 z m -152.717506,1.14733 h 13.274772 l 10.296555,47.76328 h -11.16546 l -1.395573,-9.14924 h -8.776849 l -1.395573,9.14924 H 16.423034 Z m 28.006291,0 h 10.979256 c 4.052608,0 7.041003,0.17603 8.963933,0.52754 1.943605,0.35151 3.576264,0.9409 4.899573,1.76796 1.757514,1.07518 3.091632,2.67768 4.00141,4.80735 0.930435,2.10902 1.395559,4.6314 1.395559,7.56749 0,4.83832 -1.282337,8.51878 -3.846238,11.04131 -2.543226,2.50188 -6.284922,3.75227 -11.226633,3.75227 h -3.939334 v 18.29936 H 54.850005 Z m 36.225443,0 H 102.0547 c 4.05261,0 7.04013,0.17603 8.96304,0.52754 1.94361,0.35151 3.57716,0.9409 4.90047,1.76796 1.75751,1.07518 3.09163,2.67768 4.00141,4.80735 0.93043,2.10902 1.39556,4.6314 1.39556,7.56749 0,4.83832 -1.28234,8.51878 -3.84624,11.04131 -2.54323,2.50188 -6.28582,3.75227 -11.22753,3.75227 h -3.93844 v 18.29936 H 91.075448 Z m 36.225442,0 h 12.56102 c 4.11465,0 7.10216,0.19674 8.96304,0.58962 1.86089,0.37216 3.37019,1.0237 4.52808,1.95413 1.36464,1.11655 2.37864,2.49121 3.04028,4.12466 0.68232,1.63345 1.02319,3.57679 1.02319,5.83054 0,2.74999 -0.48585,5.05579 -1.45763,6.91668 -0.95113,1.86089 -2.4397,3.39089 -4.46602,4.59013 3.453,1.53008 5.27208,5.15876 5.45817,10.88616 v 0.15511 c 0.0208,0.59962 0.0413,1.46774 0.0621,2.60496 0.0827,5.3759 0.97153,8.74658 2.667,10.11124 h -13.05666 c -0.28946,-0.99248 -0.50693,-2.02629 -0.65168,-3.10147 -0.12404,-1.09587 -0.18619,-2.26429 -0.18619,-3.50489 0,-0.76503 0.0208,-1.68493 0.0621,-2.76011 0.0414,-1.09585 0.0621,-1.80952 0.0621,-2.14035 0,-2.91539 -0.38227,-4.91052 -1.1473,-5.9857 -0.76504,-1.07519 -2.1397,-1.6128 -4.12466,-1.6128 h -2.2955 v 19.10532 h -11.04134 z m 71.67509,0 h 11.81713 l 4.12465,25.09101 c 0.18609,1.11653 0.3932,2.59475 0.62064,4.43496 0.24811,1.81956 0.48542,3.79486 0.71286,5.92455 l 0.0932,-0.58962 c 0.55828,-4.98306 0.9518,-8.21911 1.17924,-9.70783 l 4.21775,-25.15307 h 11.78522 l -10.85514,47.76328 h -13.02562 z m 38.98643,0 h 25.99005 v 9.27335 h -14.88755 v 8.77774 h 13.74026 v 9.5837 h -13.74026 v 10.42067 h 14.88755 v 9.70782 h -25.99005 z m 32.87571,0 h 12.31279 c 4.50746,0 7.84619,0.39263 10.01725,1.17834 2.17103,0.76502 3.8978,2.08879 5.17973,3.97037 0.99249,1.46804 1.69581,3.36997 2.10932,5.70641 0.41352,2.31578 0.61975,6.65813 0.61975,13.02651 0,6.36839 -0.20623,10.71074 -0.61975,13.02651 -0.41351,2.31578 -1.11683,4.21771 -2.10932,5.70642 -1.28193,1.88156 -3.0087,3.21481 -5.17973,4.00052 -2.17106,0.76504 -5.50979,1.1482 -10.01725,1.1482 h -12.31279 z m -91.33897,7.87779 c -1.71615,0 -2.9053,0.64118 -3.56695,1.92312 -0.66164,1.28194 -0.99215,4.53871 -0.99215,9.76989 v 8.62167 c 0,5.16916 0.33051,8.41557 0.99215,9.73886 0.66165,1.30261 1.87151,1.95415 3.62902,1.95415 1.73683,0 2.93545,-0.64117 3.5971,-1.92311 0.66164,-1.28196 0.99304,-4.53872 0.99304,-9.7699 v -8.62167 c 0,-5.29322 -0.34174,-8.56034 -1.02408,-9.80093 -0.66165,-1.26127 -1.87062,-1.89208 -3.62813,-1.89208 z m -39.76137,0.31033 c -0.14481,0 -0.37167,0.0103 -0.68182,0.031 -0.28947,0.0206 -0.52765,0.0311 -0.71374,0.0311 v 11.63093 c 0.18609,0 0.42427,0.0103 0.71374,0.0311 0.31015,0.0208 0.5371,0.0302 0.68182,0.0302 2.31578,0 3.94934,-0.46512 4.90046,-1.39557 0.97181,-0.93045 1.45764,-2.50188 1.45764,-4.71427 0,-2.04698 -0.48583,-3.49413 -1.45764,-4.34187 -0.95112,-0.86841 -2.58468,-1.30248 -4.90046,-1.30248 z m -73.660249,0.43444 v 11.94037 c 0.165398,0.0208 0.351815,0.0414 0.55858,0.0621 0.22744,0.0206 0.537219,0.0311 0.930075,0.0311 2.23307,0 3.845929,-0.51691 4.838406,-1.55073 0.992477,-1.0545 1.488656,-2.73984 1.488656,-5.05562 0,-1.92292 -0.527251,-3.30794 -1.581753,-4.15568 -1.054501,-0.84773 -2.812342,-1.27144 -5.272851,-1.27144 z m 36.225439,0 v 11.94037 c 0.1654,0.0208 0.35182,0.0414 0.55858,0.0621 0.22744,0.0206 0.53722,0.0311 0.93009,0.0311 2.23306,0 3.84591,-0.51691 4.83839,-1.55073 0.99248,-1.0545 1.48867,-2.73984 1.48867,-5.05562 0,-1.92292 -0.52726,-3.30794 -1.58177,-4.15568 -1.0545,-0.84773 -2.81234,-1.27144 -5.27285,-1.27144 z m 181.25048,0.21724 c -0.39286,0 -0.70266,0.0103 -0.93013,0.031 -0.20673,0 -0.39313,0.0103 -0.55855,0.0311 V 153.416 c 0.22744,0.0413 0.44493,0.0621 0.65166,0.0621 h 0.96112 c 1.19922,0 2.19254,-0.16471 2.97825,-0.49563 0.80637,-0.33082 1.45704,-0.85808 1.95325,-1.58177 0.41351,-0.57893 0.69315,-1.69559 0.83787,-3.34972 0.1654,-1.65412 0.24827,-4.90053 0.24827,-9.73885 v -2.17139 c 0,-3.96989 -0.0724,-6.64763 -0.21721,-8.03295 -0.14481,-1.406 -0.41402,-2.36732 -0.80687,-2.88425 -0.43421,-0.68232 -1.07538,-1.18886 -1.9231,-1.51969 -0.82708,-0.33083 -1.89198,-0.49563 -3.19456,-0.49563 z m -250.103381,0.30943 -3.225595,20.84223 h 6.420155 z"
       id="rect4742" />
    <path
       inkscape:connector-curvature="0"
       id="path4905"
       d="m 12.513839,109.36503 c -3.4021231,0 -6.1408661,2.73876 -6.1408661,6.14089 v 45.48816 c 0,3.40213 2.738743,6.14086 6.1408661,6.14086 H 304.98618 c 3.40212,0 6.14085,-2.73873 6.14085,-6.14086 v -45.48816 c 0,-3.40213 -2.73873,-6.14089 -6.14085,-6.14089 z m 167.047381,3.856 c 3.12216,0 5.76881,0.51691 7.93986,1.55073 2.19172,1.01316 3.96937,2.57423 5.33401,4.68324 0.99248,1.5094 1.6958,3.58736 2.10933,6.23396 0.41353,2.6466 0.62064,6.83362 0.62064,12.56103 0,5.70675 -0.20711,9.89375 -0.62064,12.56102 -0.41353,2.6466 -1.11685,4.72459 -2.10933,6.23397 -1.34396,2.08834 -3.12162,3.64941 -5.33401,4.68323 -2.19172,1.03383 -4.83838,1.55073 -7.93986,1.55073 -3.10149,0 -5.75851,-0.5169 -7.9709,-1.55073 -2.2124,-1.03382 -4.00129,-2.59489 -5.36595,-4.68323 -0.95111,-1.48871 -1.63283,-3.55633 -2.04636,-6.20293 -0.41353,-2.6466 -0.62064,-6.84396 -0.62064,-12.59206 0,-5.74808 0.20711,-9.94545 0.62064,-12.59205 0.41353,-2.64662 1.09525,-4.71422 2.04636,-6.20294 1.36466,-2.10901 3.15355,-3.67008 5.36595,-4.68324 2.21239,-1.03382 4.86941,-1.55073 7.9709,-1.55073 z m -152.717506,1.14733 h 13.274772 l 10.296555,47.76328 h -11.16546 l -1.395573,-9.14924 h -8.776849 l -1.395573,9.14924 H 16.423034 Z m 28.006291,0 h 10.979256 c 4.052608,0 7.041003,0.17603 8.963933,0.52754 1.943605,0.35151 3.576264,0.9409 4.899573,1.76796 1.757514,1.07518 3.091632,2.67768 4.00141,4.80735 0.930435,2.10902 1.395559,4.6314 1.395559,7.56749 0,4.83832 -1.282337,8.51878 -3.846238,11.04131 -2.543226,2.50188 -6.284922,3.75227 -11.226633,3.75227 h -3.939334 v 18.29936 H 54.850005 Z m 36.225443,0 H 102.0547 c 4.05261,0 7.04013,0.17603 8.96304,0.52754 1.94361,0.35151 3.57716,0.9409 4.90047,1.76796 1.75751,1.07518 3.09163,2.67768 4.00141,4.80735 0.93043,2.10902 1.39556,4.6314 1.39556,7.56749 0,4.83832 -1.28234,8.51878 -3.84624,11.04131 -2.54323,2.50188 -6.28582,3.75227 -11.22753,3.75227 h -3.93844 v 18.29936 H 91.075448 Z m 36.225442,0 h 12.56102 c 4.11465,0 7.10216,0.19674 8.96304,0.58962 1.86089,0.37216 3.37019,1.0237 4.52808,1.95413 1.36464,1.11655 2.37864,2.49121 3.04028,4.12466 0.68232,1.63345 1.02319,3.57679 1.02319,5.83054 0,2.74999 -0.48585,5.05579 -1.45763,6.91668 -0.95113,1.86089 -2.4397,3.39089 -4.46602,4.59013 3.453,1.53008 5.27208,5.15876 5.45817,10.88616 v 0.15511 c 0.0208,0.59962 0.0413,1.46774 0.0621,2.60496 0.0827,5.3759 0.97153,8.74658 2.667,10.11124 h -13.05666 c -0.28946,-0.99248 -0.50693,-2.02629 -0.65168,-3.10147 -0.12404,-1.09587 -0.18619,-2.26429 -0.18619,-3.50489 0,-0.76503 0.0208,-1.68493 0.0621,-2.76011 0.0414,-1.09585 0.0621,-1.80952 0.0621,-2.14035 0,-2.91539 -0.38227,-4.91052 -1.1473,-5.9857 -0.76504,-1.07519 -2.1397,-1.6128 -4.12466,-1.6128 h -2.2955 v 19.10532 h -11.04134 z m 71.67509,0 h 11.81713 l 4.12465,25.09101 c 0.18609,1.11653 0.3932,2.59475 0.62064,4.43496 0.24811,1.81956 0.48542,3.79486 0.71286,5.92455 l 0.0932,-0.58962 c 0.55828,-4.98306 0.9518,-8.21911 1.17924,-9.70783 l 4.21775,-25.15307 h 11.78522 l -10.85514,47.76328 h -13.02562 z m 38.98643,0 h 25.99005 v 9.27335 h -14.88755 v 8.77774 h 13.74026 v 9.5837 h -13.74026 v 10.42067 h 14.88755 v 9.70782 h -25.99005 z m 32.87571,0 h 12.31279 c 4.50746,0 7.84619,0.39263 10.01725,1.17834 2.17103,0.76502 3.8978,2.08879 5.17973,3.97037 0.99249,1.46804 1.69581,3.36997 2.10932,5.70641 0.41352,2.31578 0.61975,6.65813 0.61975,13.02651 0,6.36839 -0.20623,10.71074 -0.61975,13.02651 -0.41351,2.31578 -1.11683,4.21771 -2.10932,5.70642 -1.28193,1.88156 -3.0087,3.21481 -5.17973,4.00052 -2.17106,0.76504 -5.50979,1.1482 -10.01725,1.1482 h -12.31279 z m -91.33897,7.87779 c -1.71615,0 -2.9053,0.64118 -3.56695,1.92312 -0.66164,1.28194 -0.99215,4.53871 -0.99215,9.76989 v 8.62167 c 0,5.16916 0.33051,8.41557 0.99215,9.73886 0.66165,1.30261 1.87151,1.95415 3.62902,1.95415 1.73683,0 2.93545,-0.64117 3.5971,-1.92311 0.66164,-1.28196 0.99304,-4.53872 0.99304,-9.7699 v -8.62167 c 0,-5.29322 -0.34174,-8.56034 -1.02408,-9.80093 -0.66165,-1.26127 -1.87062,-1.89208 -3.62813,-1.89208 z m -39.76137,0.31033 c -0.14481,0 -0.37167,0.0103 -0.68182,0.031 -0.28947,0.0206 -0.52765,0.0311 -0.71374,0.0311 v 11.63093 c 0.18609,0 0.42427,0.0103 0.71374,0.0311 0.31015,0.0208 0.5371,0.0302 0.68182,0.0302 2.31578,0 3.94934,-0.46512 4.90046,-1.39557 0.97181,-0.93045 1.45764,-2.50188 1.45764,-4.71427 0,-2.04698 -0.48583,-3.49413 -1.45764,-4.34187 -0.95112,-0.86841 -2.58468,-1.30248 -4.90046,-1.30248 z m -73.660249,0.43444 v 11.94037 c 0.165398,0.0208 0.351815,0.0414 0.55858,0.0621 0.22744,0.0206 0.537219,0.0311 0.930075,0.0311 2.23307,0 3.845929,-0.51691 4.838406,-1.55073 0.992477,-1.0545 1.488656,-2.73984 1.488656,-5.05562 0,-1.92292 -0.527251,-3.30794 -1.581753,-4.15568 -1.054501,-0.84773 -2.812342,-1.27144 -5.272851,-1.27144 z m 36.225439,0 v 11.94037 c 0.1654,0.0208 0.35182,0.0414 0.55858,0.0621 0.22744,0.0206 0.53722,0.0311 0.93009,0.0311 2.23306,0 3.84591,-0.51691 4.83839,-1.55073 0.99248,-1.0545 1.48867,-2.73984 1.48867,-5.05562 0,-1.92292 -0.52726,-3.30794 -1.58177,-4.15568 -1.0545,-0.84773 -2.81234,-1.27144 -5.27285,-1.27144 z m 181.25048,0.21724 c -0.39286,0 -0.70266,0.0103 -0.93013,0.031 -0.20673,0 -0.39313,0.0103 -0.55855,0.0311 V 153.416 c 0.22744,0.0413 0.44493,0.0621 0.65166,0.0621 h 0.96112 c 1.19922,0 2.19254,-0.16471 2.97825,-0.49563 0.80637,-0.33082 1.45704,-0.85808 1.95325,-1.58177 0.41351,-0.57893 0.69315,-1.69559 0.83787,-3.34972 0.1654,-1.65412 0.24827,-4.90053 0.24827,-9.73885 v -2.17139 c 0,-3.96989 -0.0724,-6.64763 -0.21721,-8.03295 -0.14481,-1.406 -0.41402,-2.36732 -0.80687,-2.88425 -0.43421,-0.68232 -1.07538,-1.18886 -1.9231,-1.51969 -0.82708,-0.33083 -1.89198,-0.49563 -3.19456,-0.49563 z m -250.103381,0.30943 -3.225595,20.84223 h 6.420155 z"
       style="opacity:1;vector-effect:none;fill:#4d4d4d;fill-opacity:1;stroke:none;stroke-width:2.76331687;stroke-linecap:round;stroke-linejoin:round;stroke-miterlimit:4;stroke-dasharray:none;stroke-dashoffset:0;stroke-opacity:1;paint-order:stroke fill markers" />
  </g>
</svg>
